<svg width="27" height="27" viewBox="0 0 27 27" fill="none" xmlns="http://www.w3.org/2000/svg">
<g clip-path="url(#clip0_243_1070)">
<path d="M9.91375 2.44035V9.84924H2.45633V2.44035H9.91375ZM11.8788 0H0.491266C0.360974 0 0.236019 0.0514215 0.143888 0.142952C0.0517579 0.234483 0 0.358625 0 0.488069V11.8015C0 11.931 0.0517579 12.0551 0.143888 12.1466C0.236019 12.2382 0.360974 12.2896 0.491266 12.2896H11.8788C12.0091 12.2896 12.1341 12.2382 12.2262 12.1466C12.3183 12.0551 12.3701 11.931 12.3701 11.8015V0.488069C12.3701 0.358625 12.3183 0.234483 12.2262 0.142952C12.1341 0.0514215 12.0091 0 11.8788 0Z" fill="black"/>
<path d="M24.544 2.44035V9.90781H17.0276V2.44035H24.544ZM26.5091 0H15.0626C14.9323 0 14.8073 0.0514215 14.7152 0.142952C14.623 0.234483 14.5713 0.358625 14.5713 0.488069V11.8601C14.5713 11.9895 14.623 12.1137 14.7152 12.2052C14.8073 12.2967 14.9323 12.3482 15.0626 12.3482H26.5091C26.6393 12.3482 26.7643 12.2967 26.8564 12.2052C26.9486 12.1137 27.0003 11.9895 27.0003 11.8601V0.488069C27.0003 0.358625 26.9486 0.234483 26.8564 0.142952C26.7643 0.0514215 26.6393 0 26.5091 0V0Z" fill="black"/>
<path d="M9.91375 17.1405V24.5592H2.45633V17.1405H9.91375ZM11.8788 14.7002H0.491266C0.360974 14.7002 0.236019 14.7516 0.143888 14.8431C0.0517579 14.9347 0 15.0588 0 15.1883V26.5115C0 26.6409 0.0517579 26.7651 0.143888 26.8566C0.236019 26.9481 0.360974 26.9995 0.491266 26.9995H11.8788C12.0091 26.9995 12.1341 26.9481 12.2262 26.8566C12.3183 26.7651 12.3701 26.6409 12.3701 26.5115V15.1883C12.3701 15.0588 12.3183 14.9347 12.2262 14.8431C12.1341 14.7516 12.0091 14.7002 11.8788 14.7002Z" fill="black"/>
<path d="M19.6312 15.7257C20.1145 16.0514 20.5094 16.4906 20.7808 17.0044C21.0559 16.4902 21.4541 16.0511 21.9402 15.7257C22.4246 15.4014 22.9969 15.2311 23.581 15.2376C24.1986 15.2265 24.8073 15.3853 25.3397 15.6964C25.848 15.9977 26.2654 16.4293 26.5482 16.9458C26.8584 17.5076 27.0142 18.1405 27.0002 18.781C26.9987 19.3935 26.8787 19.9999 26.6465 20.5673C26.3891 21.1617 26.0591 21.7223 25.664 22.2365C25.2615 22.7798 24.8145 23.2891 24.3277 23.7593C23.8497 24.2275 23.3444 24.6675 22.8146 25.0771C22.2841 25.4773 21.8321 25.8385 21.3113 26.1411C21.2233 26.2128 21.1278 26.275 21.0264 26.3265C20.9503 26.3772 20.8623 26.4075 20.7709 26.4144C20.6659 26.4077 20.5643 26.3741 20.4762 26.3168L20.1618 26.1411C19.6454 25.8199 19.1468 25.4713 18.6683 25.0966C18.1333 24.6897 17.6246 24.2495 17.1454 23.7788C16.6614 23.3088 16.2177 22.7994 15.819 22.256C15.4217 21.7361 15.0916 21.1688 14.8364 20.5673C14.612 19.998 14.4954 19.3924 14.4926 18.781C14.4837 18.1434 14.6321 17.5133 14.9249 16.9458C15.2077 16.4293 15.6251 15.9977 16.1334 15.6964C16.6701 15.3868 17.2815 15.2283 17.902 15.2376C18.516 15.2134 19.1217 15.3844 19.6312 15.7257V15.7257Z" fill="black"/>
</g>
<defs>
<clipPath id="clip0_243_1070">
<rect width="27" height="27" fill="white"/>
</clipPath>
</defs>
</svg>
