<svg width="27" height="27" viewBox="0 0 27 27" fill="none" xmlns="http://www.w3.org/2000/svg">
<g clip-path="url(#clip0_243_1082)">
<path d="M2.74909 9.87686H0.196361C0.144282 9.87686 0.0943388 9.85625 0.0575134 9.81957C0.0206881 9.78289 0 9.73315 0 9.68128V5.37849C0 3.95202 0.56893 2.58398 1.58163 1.57532C2.59432 0.56666 3.96783 0 5.4 0H9.46473C9.51681 0 9.56675 0.0206059 9.60357 0.0572845C9.6404 0.0939631 9.66109 0.14371 9.66109 0.195581V2.73814C9.66109 2.79001 9.6404 2.83976 9.60357 2.87644C9.56675 2.91311 9.51681 2.93372 9.46473 2.93372H2.94545V9.66172C2.94821 9.689 2.94517 9.71655 2.93654 9.74258C2.92791 9.76862 2.91389 9.79255 2.89537 9.81284C2.87686 9.83313 2.85427 9.84931 2.82906 9.86034C2.80386 9.87137 2.77662 9.87699 2.74909 9.87686V9.87686Z" fill="black"/>
<path d="M9.46473 26.9999H5.4C3.96863 26.9973 2.59662 26.4298 1.58449 25.4217C0.572354 24.4136 0.00259542 23.0471 0 21.6214V17.3284C0 17.2765 0.0206881 17.2268 0.0575134 17.1901C0.0943388 17.1534 0.144282 17.1328 0.196361 17.1328H2.74909C2.80117 17.1328 2.85112 17.1534 2.88794 17.1901C2.92477 17.2268 2.94545 17.2765 2.94545 17.3284V24.0662H9.46473C9.51681 24.0662 9.56675 24.0868 9.60357 24.1235C9.6404 24.1601 9.66109 24.2099 9.66109 24.2618V26.8043C9.66109 26.8562 9.6404 26.9059 9.60357 26.9426C9.56675 26.9793 9.51681 26.9999 9.46473 26.9999V26.9999Z" fill="black"/>
<path d="M21.6095 26.9999H17.5938C17.5417 26.9999 17.4918 26.9793 17.455 26.9426C17.4181 26.9059 17.3975 26.8562 17.3975 26.8043V24.2618C17.3975 24.2099 17.4181 24.1601 17.455 24.1235C17.4918 24.0868 17.5417 24.0662 17.5938 24.0662H24.064V17.3284C24.064 17.2765 24.0847 17.2268 24.1215 17.1901C24.1583 17.1534 24.2083 17.1328 24.2604 17.1328H26.8131C26.8652 17.1328 26.9151 17.1534 26.9519 17.1901C26.9888 17.2268 27.0095 17.2765 27.0095 17.3284V21.6214C27.0095 23.0479 26.4405 24.4159 25.4278 25.4246C24.4151 26.4332 23.0416 26.9999 21.6095 26.9999V26.9999Z" fill="black"/>
<path d="M26.8139 9.87686H24.3004C24.2483 9.87686 24.1984 9.85625 24.1616 9.81957C24.1247 9.78289 24.1041 9.73315 24.1041 9.68128V2.93372H17.6339C17.5818 2.93372 17.5318 2.91311 17.495 2.87644C17.4582 2.83976 17.4375 2.79001 17.4375 2.73814V0.195581C17.4375 0.169897 17.4426 0.144465 17.4525 0.120736C17.4623 0.0970066 17.4768 0.0754459 17.495 0.0572845C17.5132 0.0391231 17.5349 0.0247167 17.5587 0.0148879C17.5826 0.00505898 17.6081 0 17.6339 0H21.6495C23.0817 0 24.4552 0.56666 25.4679 1.57532C26.4806 2.58398 27.0495 3.95202 27.0495 5.37849V9.66172C27.0533 9.69263 27.0497 9.724 27.0388 9.75322C27.028 9.78244 27.0103 9.80866 26.9873 9.8297C26.9642 9.85075 26.9365 9.866 26.9063 9.87421C26.8762 9.88241 26.8445 9.88332 26.8139 9.87686V9.87686Z" fill="black"/>
<path d="M13.5001 19.0787C12.0392 19.0709 10.6408 18.4875 9.61053 17.4558C8.58026 16.4241 8.00193 15.0282 8.00195 13.5731C8.00193 12.118 8.58026 10.722 9.61053 9.69035C10.6408 8.65869 12.0392 8.07521 13.5001 8.06746C14.2285 8.0636 14.9505 8.20315 15.6245 8.4781C16.2986 8.75305 16.9114 9.15798 17.4278 9.66961C17.9442 10.1812 18.354 10.7895 18.6337 11.4594C18.9133 12.1293 19.0572 12.8476 19.0572 13.5731C19.0572 14.2986 18.9133 15.0169 18.6337 15.6868C18.354 16.3567 17.9442 16.9649 17.4278 17.4765C16.9114 17.9882 16.2986 18.3931 15.6245 18.668C14.9505 18.943 14.2285 19.0826 13.5001 19.0787V19.0787ZM13.5001 10.5122C12.6902 10.52 11.9161 10.8459 11.3462 11.419C10.7762 11.9922 10.4565 12.7663 10.4565 13.5731C10.4565 14.3798 10.7762 15.1539 11.3462 15.7271C11.9161 16.3003 12.6902 16.6262 13.5001 16.6339C13.9062 16.6378 14.309 16.5615 14.6852 16.4094C15.0615 16.2573 15.4037 16.0325 15.6922 15.7479C15.9807 15.4632 16.2097 15.1245 16.366 14.7512C16.5222 14.3779 16.6027 13.9775 16.6027 13.5731C16.6027 13.1686 16.5222 12.7682 16.366 12.3949C16.2097 12.0216 15.9807 11.6829 15.6922 11.3983C15.4037 11.1137 15.0615 10.8888 14.6852 10.7367C14.309 10.5847 13.9062 10.5084 13.5001 10.5122V10.5122Z" fill="black"/>
</g>
<defs>
<clipPath id="clip0_243_1082">
<rect width="27" height="27" fill="white"/>
</clipPath>
</defs>
</svg>
