<svg width="32" height="32" viewBox="0 0 32 32" fill="none" xmlns="http://www.w3.org/2000/svg">
<g clip-path="url(#clip0_228_1048)">
<path fill-rule="evenodd" clip-rule="evenodd" d="M27.19 22.2V4.5H9.47998V6.99023H24.2C24.3326 6.99023 24.4598 7.04291 24.5536 7.13668C24.6473 7.23045 24.7 7.35763 24.7 7.49023V22.2H27.19ZM2.5 6.99023H6.97998V2.5C6.97998 2.36739 7.03266 2.24021 7.12643 2.14645C7.2202 2.05268 7.34737 2 7.47998 2H29.19C29.3226 2 29.4498 2.05268 29.5435 2.14645C29.6373 2.24021 29.69 2.36739 29.69 2.5V24.2C29.69 24.3326 29.6373 24.4598 29.5435 24.5536C29.4498 24.6473 29.3226 24.7 29.19 24.7H24.7V29.1902C24.7 29.3228 24.6473 29.45 24.5536 29.5438C24.4598 29.6376 24.3326 29.6902 24.2 29.6902H2.5C2.36739 29.6902 2.24021 29.6376 2.14645 29.5438C2.05268 29.45 2 29.3228 2 29.1902V7.49023C2.00256 7.35843 2.05606 7.23273 2.14928 7.13951C2.2425 7.04629 2.36819 6.99279 2.5 6.99023ZM22.2 23.9729V27.1902H4.5V20.7384L9.37984 15.7098L11.9298 18.5498C12.1091 18.7515 12.3273 18.9148 12.5713 19.03C12.8154 19.1451 13.0802 19.2097 13.3498 19.2198C13.6214 19.228 13.8918 19.1809 14.1446 19.0811C14.3973 18.9814 14.6271 18.8312 14.8198 18.6398L15.8198 17.6398L22.2 23.9729ZM22.2 20.475L17.2098 15.5198C16.836 15.1533 16.3333 14.9481 15.8098 14.9481C15.2863 14.9481 14.7837 15.1533 14.4098 15.5198L13.4098 16.5198L10.8998 13.6498C10.7183 13.4447 10.4966 13.2792 10.2484 13.1633C10.0003 13.0475 9.73096 12.9838 9.4572 12.9763C9.18344 12.9688 8.91105 13.0176 8.65692 13.1197C8.4028 13.2218 8.17234 13.375 7.97984 13.5698L4.5 17.1484V9.49023H22.2V20.475Z" fill="#1D1D1B"/>
</g>
<defs>
<clipPath id="clip0_228_1048">
<rect width="27.68" height="27.7" fill="white" transform="translate(2 2)"/>
</clipPath>
</defs>
</svg>
